<svg width="32" height="17" viewBox="0 0 32 17" fill="none" xmlns="http://www.w3.org/2000/svg">
<path d="M0 15.5C0 14.6716 0.671573 14 1.5 14H30.5C31.3284 14 32 14.6716 32 15.5V15.5C32 16.3284 31.3284 17 30.5 17H1.5C0.671573 17 0 16.3284 0 15.5V15.5Z" fill="#FAEBD7"/>
<path d="M0 8.5C0 7.67157 0.671573 7 1.5 7H30.5C31.3284 7 32 7.67157 32 8.5V8.5C32 9.32843 31.3284 10 30.5 10H1.5C0.671573 10 0 9.32843 0 8.5V8.5Z" fill="#FAEBD7"/>
<path d="M0 1.5C0 0.671573 0.671573 0 1.5 0H30.5C31.3284 0 32 0.671573 32 1.5V1.5C32 2.32843 31.3284 3 30.5 3H1.5C0.671573 3 0 2.32843 0 1.5V1.5Z" fill="#FAEBD7"/>
</svg>
