<svg width="32" height="24" viewBox="0 0 32 24" fill="none" xmlns="http://www.w3.org/2000/svg">
<path d="M0 11H32V13H0V11Z" fill="#DB9586"/>
<path d="M32 8C32 6.94943 31.5861 5.90914 30.7821 4.93853C29.978 3.96793 28.7994 3.08601 27.3137 2.34315C25.828 1.60028 24.0641 1.011 22.1229 0.608964C20.1817 0.206926 18.1011 -4.59221e-08 16 0C13.8988 4.59221e-08 11.8183 0.206926 9.87706 0.608964C7.93585 1.011 6.17203 1.60028 4.68629 2.34315C3.20055 3.08601 2.022 3.96793 1.21793 4.93853C0.413852 5.90914 -1.83688e-07 6.94943 0 8L16 8H32Z" fill="#FEE6E1"/>
<path d="M32 16C32 17.0506 31.5861 18.0909 30.7821 19.0615C29.978 20.0321 28.7994 20.914 27.3137 21.6569C25.828 22.3997 24.0641 22.989 22.1229 23.391C20.1817 23.7931 18.1011 24 16 24C13.8988 24 11.8183 23.7931 9.87706 23.391C7.93585 22.989 6.17203 22.3997 4.68629 21.6569C3.20055 20.914 2.022 20.0321 1.21793 19.0615C0.413852 18.0909 -1.83688e-07 17.0506 0 16L16 16H32Z" fill="#FEE6E1"/>
</svg>
